<svg width="16" height="16" viewBox="0 0 16 16" fill="none" xmlns="http://www.w3.org/2000/svg">
  <rect width="16" height="16" rx="2" fill="#1572B6"/>
  <path d="M3 2L4 13L8 14L12 13L13 2H3Z" fill="white"/>
  <path d="M8 3V13L11 12L11.8 3H8Z" fill="#1572B6"/>
  <path d="M5 5H8V6H6L6.2 7H8V8H5.4L5 5Z" fill="white"/>
  <path d="M5.6 9H8V10H6.8L7 11H8V12H5.8L5.6 9Z" fill="white"/>
  <path d="M8.5 5H11L10.8 6H8.5V5Z" fill="#33A9DC"/>
  <path d="M8.5 7H10.6L10.4 8H8.5V7Z" fill="#33A9DC"/>
  <path d="M8.5 9H10.2L10 10H8.5V9Z" fill="#33A9DC"/>
  <path d="M8.5 11H9.8L9.6 12H8.5V11Z" fill="#33A9DC"/>
</svg>