<svg width="16" height="16" viewBox="0 0 16 16" fill="none" xmlns="http://www.w3.org/2000/svg">
  <rect width="16" height="16" rx="2" fill="#F7DF1E"/>
  <path d="M4.5 12.5V10C4.5 9.5 4.8 9.2 5.3 9.2H6.2V12.5C6.2 13.3 5.7 13.8 4.9 13.8C4.1 13.8 3.6 13.3 3.6 12.5H4.5Z" fill="#000000"/>
  <path d="M8.5 13.8C7.5 13.8 6.8 13.2 6.8 12.2H7.7C7.7 12.6 8 12.9 8.5 12.9C9 12.9 9.3 12.6 9.3 12.1C9.3 11.5 8.9 11.3 8.3 11.1L8 11C7.2 10.7 6.7 10.2 6.7 9.3C6.7 8.5 7.3 7.8 8.4 7.8C9.4 7.8 10 8.4 10.1 9.2H9.2C9.1 8.8 8.8 8.6 8.4 8.6C8 8.6 7.7 8.8 7.7 9.2C7.7 9.7 8 9.9 8.5 10.1L8.8 10.2C9.7 10.6 10.2 11.1 10.2 12C10.2 13 9.5 13.8 8.5 13.8Z" fill="#000000"/>
</svg>