<svg width="16" height="16" viewBox="0 0 16 16" fill="none" xmlns="http://www.w3.org/2000/svg">
  <rect width="16" height="16" rx="2" fill="#f89820"/>
  <path d="M6 3C6 3 7 2 9 3C11 4 10 5 10 5S11 4 9 5C7 6 6 5 6 3Z" fill="white"/>
  <path d="M5 6C5 6 6 5 8 6C10 7 9 8 9 8S10 7 8 8C6 9 5 8 5 6Z" fill="white"/>
  <path d="M4 9C4 9 5 8 7 9C9 10 8 11 8 11S9 10 7 11C5 12 4 11 4 9Z" fill="white"/>
  <ellipse cx="8" cy="12.5" rx="4" ry="1" fill="white"/>
  <text x="8" y="14.5" text-anchor="middle" font-family="Arial, sans-serif" font-size="2.5" font-weight="bold" fill="#f89820">JAVA</text>
</svg>