<svg width="16" height="16" viewBox="0 0 16 16" fill="none" xmlns="http://www.w3.org/2000/svg">
  <rect width="16" height="16" rx="2" fill="#FA7343"/>
  <path d="M3 8C3 8 5 6 8 8C11 10 13 8 13 8C13 8 11 10 8 8C5 6 3 8 3 8Z" fill="white"/>
  <path d="M4 5C4 5 6 4 8 5C10 6 12 5 12 5" stroke="white" stroke-width="1.5" stroke-linecap="round"/>
  <path d="M4 11C4 11 6 12 8 11C10 10 12 11 12 11" stroke="white" stroke-width="1.5" stroke-linecap="round"/>
  <circle cx="8" cy="8" r="1.5" fill="white"/>
</svg>